<svg xmlns="http://www.w3.org/2000/svg" viewBox="0 0 100.17 120.55"><defs><style>.cls-1{fill:#88c3bb;}.cls-1,.cls-2{stroke:#231815;stroke-miterlimit:10;}.cls-2{fill:#dc3754;}</style></defs><title>资源 1</title><g id="图层_2" data-name="图层 2"><g id="图层_1-2" data-name="图层 1"><path class="cls-1" d="M38.25,2.15C29-1.91,18,2.79,18,2.79h0S21.85,14.14,31,18.32s20.5-.59,20.5-.59S47.52,6.22,38.25,2.15Z"/><circle class="cls-2" cx="50.08" cy="70.47" r="49.58"/><ellipse class="cls-1" cx="51.54" cy="26.35" rx="13.78" ry="3.81"/><path class="cls-1" d="M51,7.8h3.29a.34.34,0,0,1,.34.34V25.77a1.7,1.7,0,0,1-1.7,1.7h-.82A1.45,1.45,0,0,1,50.66,26V8.14A.34.34,0,0,1,51,7.8Z"/></g></g></svg>